<?xml version="1.0" encoding="UTF-8" ?>
<!DOCTYPE svg PUBLIC "-//W3C//DTD SVG 1.1//EN" "http://www.w3.org/Graphics/SVG/1.1/DTD/svg11.dtd">
<svg width="800pt" height="800pt" viewBox="0 0 800 800" version="1.1" xmlns="http://www.w3.org/2000/svg">
<g id="#fefbe8ff">
</g>
<g id="#09687aff">
<path fill="#09687a" opacity="1.00" d=" M 364.75 138.97 C 365.74 134.15 370.13 130.48 374.93 129.79 C 379.64 129.15 384.36 130.11 389.00 130.89 C 406.87 134.18 424.60 138.97 441.07 146.77 C 443.54 148.02 446.38 147.97 449.06 148.38 C 460.92 149.82 472.53 152.71 484.07 155.70 C 503.04 160.68 521.82 166.82 539.40 175.61 C 546.58 179.14 553.80 182.73 560.23 187.55 C 562.32 181.11 566.02 175.33 570.14 170.01 C 576.31 162.58 582.77 155.16 590.99 149.93 C 604.93 140.23 622.06 135.34 639.02 136.04 C 657.58 135.47 675.84 142.30 690.58 153.35 C 703.96 163.62 715.09 177.26 720.68 193.32 C 729.00 214.91 728.83 239.61 720.11 261.05 C 713.07 278.83 699.06 292.90 683.04 302.89 C 693.75 318.52 702.53 335.45 709.54 353.06 C 712.44 360.05 714.92 367.39 715.49 374.98 C 715.27 375.52 714.84 376.60 714.62 377.14 C 739.48 401.05 755.89 432.82 764.48 466.01 C 771.56 492.41 770.90 520.25 766.84 547.07 C 766.12 552.63 758.28 556.56 754.33 551.71 C 751.73 568.18 746.85 584.58 737.76 598.70 C 731.12 609.13 723.55 619.15 714.12 627.22 C 710.69 630.59 706.31 633.06 703.38 636.87 C 709.65 637.04 715.98 636.52 722.19 637.65 C 724.41 639.53 727.12 641.79 727.05 645.01 C 727.28 648.23 725.17 651.06 722.67 652.85 C 720.30 651.55 717.60 651.43 714.98 651.57 C 699.08 652.02 683.16 651.53 667.27 652.22 C 667.50 652.54 667.95 653.17 668.17 653.49 C 656.91 657.48 645.36 660.92 633.45 662.27 C 626.16 663.29 618.79 663.01 611.45 662.94 C 609.35 662.29 607.21 661.69 605.00 661.80 C 557.66 661.48 510.31 661.67 462.97 661.60 C 444.01 660.70 425.01 660.90 406.03 660.86 C 376.68 661.62 347.30 660.28 317.94 661.10 C 308.63 661.20 299.31 661.05 289.99 661.13 C 271.34 662.08 252.66 661.64 234.00 661.79 C 225.68 661.64 217.36 662.31 209.04 661.87 C 206.78 661.66 204.61 662.29 202.49 662.94 C 195.59 663.00 188.69 663.12 181.80 662.86 C 182.93 662.30 184.07 661.75 185.21 661.21 C 175.41 660.74 165.73 658.97 156.27 656.39 C 153.31 655.58 150.09 653.87 147.19 655.84 C 143.79 655.05 140.52 653.77 137.11 653.05 C 123.77 654.20 110.35 653.38 96.98 653.67 C 92.63 653.57 88.26 654.06 83.94 653.36 C 81.07 651.19 79.11 647.57 79.97 643.92 C 80.54 640.68 83.41 638.69 86.14 637.32 C 92.44 636.31 98.95 637.74 105.16 636.20 C 105.39 635.93 105.84 635.40 106.06 635.13 C 102.91 631.46 98.57 629.17 94.76 626.30 C 87.05 620.66 81.15 613.05 75.55 605.42 C 74.62 604.06 73.12 603.30 71.79 602.43 C 65.04 593.20 60.38 582.57 56.30 571.92 C 53.78 565.58 52.74 558.82 51.45 552.16 C 48.11 556.05 41.69 553.04 39.77 549.08 C 37.75 544.16 37.67 538.70 37.31 533.47 C 38.50 524.45 37.37 515.35 38.01 506.31 C 38.82 507.05 39.62 507.81 40.43 508.57 C 40.99 507.64 41.55 506.72 42.11 505.80 C 43.02 507.87 43.95 509.94 44.85 512.02 C 46.23 510.17 47.70 508.40 49.20 506.66 C 50.00 509.43 50.89 512.17 51.68 514.95 C 52.33 512.04 50.88 508.01 53.80 506.12 C 53.09 513.09 53.02 520.11 53.49 527.11 C 54.10 526.80 54.50 526.33 54.69 525.70 C 57.51 516.99 63.65 509.96 68.50 502.35 C 68.74 501.87 69.22 500.90 69.46 500.42 C 68.19 509.59 67.72 518.89 68.67 528.13 C 69.71 545.26 72.69 562.73 80.99 577.96 C 86.47 590.08 95.63 600.00 104.60 609.63 C 111.46 616.79 120.02 622.07 128.85 626.45 C 134.14 629.30 139.74 631.49 145.36 633.60 C 153.03 636.62 161.05 638.67 169.10 640.42 C 181.26 642.88 193.70 642.11 206.02 642.23 C 249.10 642.32 292.17 643.13 335.25 642.68 C 381.76 642.80 428.28 642.75 474.79 642.51 C 516.53 642.62 558.26 642.60 600.00 642.50 C 612.48 642.39 625.05 642.65 637.41 640.64 C 646.62 638.84 655.65 636.11 664.41 632.76 C 670.03 630.60 675.61 628.33 680.90 625.42 C 691.32 620.40 700.15 612.62 707.79 604.04 C 719.38 591.29 727.70 575.73 732.69 559.29 C 736.29 548.57 738.01 537.26 738.27 525.97 C 738.44 516.90 739.18 507.45 735.52 498.91 C 741.73 507.02 748.13 515.33 751.57 525.07 C 751.96 525.94 752.42 526.72 752.90 527.59 C 752.97 521.32 752.56 515.06 752.06 508.83 C 752.39 487.51 745.74 466.87 737.71 447.37 C 728.74 426.34 712.61 409.67 697.65 392.81 C 704.54 396.24 710.25 401.54 717.07 405.10 C 712.63 396.80 705.72 390.35 699.18 383.78 C 698.84 383.43 698.15 382.72 697.80 382.37 C 698.34 382.20 699.42 381.87 699.96 381.70 C 695.01 371.14 691.70 359.89 686.50 349.43 C 679.35 335.41 671.90 321.49 663.00 308.48 C 664.29 304.20 664.27 299.38 661.01 295.94 C 659.79 296.42 658.59 296.91 657.38 297.40 C 656.36 295.25 655.07 293.18 654.50 290.86 C 654.43 287.70 654.86 284.52 655.51 281.44 C 656.69 278.88 659.41 277.61 661.73 276.25 C 663.98 278.79 665.90 282.04 669.47 282.83 C 670.47 284.11 671.48 285.38 672.49 286.66 C 676.58 285.53 679.35 282.15 682.55 279.60 C 692.04 271.25 700.12 260.71 703.56 248.39 C 707.87 235.52 707.95 221.58 705.49 208.33 C 703.97 202.48 701.59 196.87 698.56 191.65 C 693.97 183.63 687.90 176.50 680.87 170.52 C 678.88 168.75 676.69 167.24 674.51 165.74 C 674.74 164.50 674.37 163.41 673.17 162.88 C 668.95 160.06 664.07 158.49 659.35 156.74 C 650.61 153.62 641.19 154.02 632.06 154.05 C 628.97 154.03 625.91 154.52 622.93 155.31 C 623.98 155.58 625.04 155.83 626.12 156.07 C 607.50 159.66 590.00 171.18 580.75 187.93 C 576.59 195.06 574.13 203.10 572.74 211.21 C 548.73 199.40 524.98 186.70 499.36 178.62 C 493.06 177.10 487.08 174.46 480.73 173.14 C 479.16 172.67 477.59 173.11 476.14 173.68 C 473.97 173.27 471.83 172.71 469.69 172.18 C 469.19 170.90 468.30 170.14 467.01 169.90 C 460.42 168.34 453.70 167.36 446.96 166.66 C 443.54 166.31 440.17 165.40 437.12 163.81 C 424.98 156.64 411.89 151.26 398.82 146.06 C 392.81 144.37 386.68 143.03 380.52 142.01 C 380.43 142.56 380.27 143.67 380.19 144.22 C 387.20 152.35 395.82 158.88 404.06 165.70 C 397.05 166.11 390.02 166.02 383.00 165.88 C 374.62 165.66 366.31 166.93 358.00 167.80 C 356.54 167.91 355.47 168.64 354.78 170.01 C 353.09 170.40 351.39 170.68 349.69 170.93 C 348.20 170.24 346.63 169.50 344.96 169.99 C 336.99 171.31 329.02 172.79 321.29 175.16 C 312.64 177.59 303.80 179.69 295.71 183.70 C 296.32 183.84 297.54 184.11 298.15 184.25 C 285.52 188.87 272.98 193.84 260.94 199.86 C 252.09 204.74 242.82 208.96 234.56 214.81 C 232.63 206.94 229.93 199.21 226.46 191.89 L 226.39 191.76 C 226.87 190.48 227.02 189.08 226.22 187.90 C 224.54 184.41 222.04 181.40 219.33 178.68 C 216.15 175.49 213.37 171.84 209.66 169.23 C 208.67 168.27 207.29 168.44 206.05 168.64 C 205.24 168.03 204.43 167.42 203.63 166.79 C 203.47 163.81 200.36 162.41 198.12 161.07 C 191.30 158.17 184.39 155.10 176.98 154.15 C 170.70 153.27 164.37 154.02 158.07 154.10 C 155.24 154.08 152.46 154.67 149.82 155.63 C 151.26 155.78 152.71 155.90 154.16 155.99 C 142.38 158.30 131.41 164.02 122.43 171.94 C 111.56 180.81 104.26 193.54 100.67 206.99 C 97.19 223.38 97.76 241.12 105.02 256.47 C 103.96 259.39 106.45 261.64 107.32 264.21 C 107.64 266.00 107.00 267.79 106.81 269.57 C 103.92 270.17 101.07 270.94 98.23 271.71 C 98.63 272.46 99.02 273.20 99.42 273.96 C 99.21 274.50 98.99 275.05 98.78 275.60 C 103.73 277.38 106.36 282.15 109.77 285.79 C 109.33 286.51 108.90 287.23 108.46 287.96 C 110.98 289.42 111.50 292.10 111.40 294.79 C 95.35 282.20 84.35 263.53 80.20 243.63 C 76.16 221.73 79.53 198.20 91.08 179.01 C 97.84 168.16 106.24 158.13 116.85 150.87 C 132.08 140.60 150.61 135.18 168.99 135.93 C 187.65 136.48 206.20 143.37 220.29 155.71 C 230.54 164.01 238.73 174.58 245.09 186.09 C 246.81 185.67 248.33 184.74 249.86 183.86 C 265.41 175.03 282.18 168.55 299.23 163.24 C 309.25 159.67 319.58 157.08 329.99 154.97 C 342.40 152.01 355.10 150.48 367.81 149.69 C 365.68 146.58 364.08 142.82 364.75 138.97 Z" />
</g>
<g id="#d7f8f7ff">
<path fill="#d7f8f7" opacity="1.00" d=" M 630.81 135.19 C 636.21 134.60 641.81 134.13 647.14 135.50 C 641.78 135.74 635.91 136.89 630.81 135.19 Z" />
</g>
<g id="#155666ff">
<path fill="#155666" opacity="1.00" d=" M 380.52 142.01 C 386.68 143.03 392.81 144.37 398.82 146.06 C 411.89 151.26 424.98 156.64 437.12 163.81 C 440.17 165.40 443.54 166.31 446.96 166.66 C 453.70 167.36 460.42 168.34 467.01 169.90 C 468.30 170.14 469.19 170.90 469.69 172.18 C 461.84 170.46 453.94 168.79 445.89 168.51 C 441.94 168.63 438.30 166.99 435.11 164.82 C 430.17 161.41 424.54 159.26 419.20 156.60 C 406.94 150.48 393.71 146.34 380.19 144.22 C 380.27 143.67 380.43 142.56 380.52 142.01 Z" />
<path fill="#155666" opacity="1.00" d=" M 622.93 155.31 C 625.91 154.52 628.97 154.03 632.06 154.05 C 641.19 154.02 650.61 153.62 659.35 156.74 C 664.07 158.49 668.95 160.06 673.17 162.88 C 674.37 163.41 674.74 164.50 674.51 165.74 C 660.28 156.66 642.75 153.00 626.12 156.07 C 625.04 155.83 623.98 155.58 622.93 155.31 Z" />
<path fill="#155666" opacity="1.00" d=" M 476.14 173.68 C 477.59 173.11 479.16 172.67 480.73 173.14 C 487.08 174.46 493.06 177.10 499.36 178.62 C 524.98 186.70 548.73 199.40 572.74 211.21 C 572.60 212.50 572.52 213.79 572.49 215.09 C 552.74 203.72 532.47 193.11 511.26 184.73 C 499.77 180.37 487.87 177.30 476.14 173.68 Z" />
<path fill="#155666" opacity="1.00" d=" M 71.79 602.43 C 73.12 603.30 74.62 604.06 75.55 605.42 C 81.15 613.05 87.05 620.66 94.76 626.30 C 98.57 629.17 102.91 631.46 106.06 635.13 C 105.84 635.40 105.39 635.93 105.16 636.20 C 91.41 627.95 80.48 615.77 71.79 602.43 Z" />
</g>
<g id="#ffffffff">
<path fill="#ffffff" opacity="1.00" d=" M 404.06 165.70 C 395.82 158.88 387.20 152.35 380.19 144.22 C 393.71 146.34 406.94 150.48 419.20 156.60 C 424.54 159.26 430.17 161.41 435.11 164.82 C 438.30 166.99 441.94 168.63 445.89 168.51 C 453.94 168.79 461.84 170.46 469.69 172.18 C 471.83 172.71 473.97 173.27 476.14 173.68 C 487.87 177.30 499.77 180.37 511.26 184.73 C 532.47 193.11 552.74 203.72 572.49 215.09 C 572.55 215.62 572.68 216.68 572.75 217.21 C 565.28 214.14 558.14 210.38 550.91 206.81 C 551.47 209.43 554.46 210.13 556.26 211.72 C 565.11 218.45 573.17 226.15 581.12 233.90 C 572.62 229.77 565.25 223.72 557.12 218.95 C 531.60 204.55 504.59 191.92 475.54 186.72 C 468.69 185.73 461.23 182.45 454.53 185.60 C 452.79 191.96 458.25 196.77 462.14 200.92 C 457.44 200.58 453.21 198.33 448.69 197.24 C 433.18 193.04 417.31 190.14 401.32 188.59 C 397.08 187.88 392.71 187.85 388.61 186.48 C 392.97 185.46 397.49 185.81 401.91 185.29 C 399.58 181.79 394.69 182.17 390.98 181.71 C 371.53 181.86 352.04 183.35 332.90 186.96 C 315.89 190.09 299.32 195.25 283.10 201.19 C 267.53 207.97 252.35 215.76 238.35 225.40 C 233.39 228.87 228.07 231.78 222.99 235.06 C 223.96 234.15 224.93 233.23 225.92 232.34 C 230.59 228.55 234.60 224.03 239.35 220.34 C 244.76 215.91 250.35 211.70 255.57 207.05 C 247.30 209.09 240.34 214.27 232.44 217.26 C 233.13 216.43 233.82 215.60 234.56 214.81 C 242.82 208.96 252.09 204.74 260.94 199.86 C 272.98 193.84 285.52 188.87 298.15 184.25 C 308.95 180.12 320.26 177.63 331.41 174.65 C 337.44 173.13 343.56 172.00 349.69 170.93 C 351.39 170.68 353.09 170.40 354.78 170.01 C 371.92 167.33 389.29 167.25 406.59 167.69 C 405.74 167.02 404.90 166.36 404.06 165.70 Z" />
<path fill="#ffffff" opacity="1.00" d=" M 154.16 155.99 C 171.27 152.43 189.39 156.91 203.63 166.79 C 204.43 167.42 205.24 168.03 206.05 168.64 C 214.28 174.90 221.25 182.78 226.39 191.76 L 226.46 191.89 C 222.84 196.28 218.92 200.42 215.49 204.97 C 214.91 203.79 214.31 202.62 213.73 201.46 C 208.48 188.59 197.71 178.74 185.75 172.11 C 177.36 168.05 168.41 164.58 158.98 164.38 C 150.59 164.20 141.90 164.00 133.92 167.00 C 129.91 168.21 126.33 170.46 122.43 171.94 C 131.41 164.02 142.38 158.30 154.16 155.99 Z" />
<path fill="#ffffff" opacity="1.00" d=" M 262.98 347.52 C 269.58 345.25 277.15 347.81 281.80 352.81 C 283.25 354.63 284.39 356.69 285.19 358.88 C 287.99 367.59 281.73 377.44 272.93 379.30 C 263.75 381.74 253.50 375.21 251.75 365.90 C 249.88 358.09 255.36 349.65 262.98 347.52 Z" />
<path fill="#ffffff" opacity="1.00" d=" M 539.01 347.93 C 543.97 345.68 549.86 346.46 554.54 349.05 C 557.95 351.10 560.99 354.06 562.31 357.90 C 563.74 361.74 562.98 365.96 561.65 369.72 C 558.31 376.03 551.26 380.87 543.92 379.78 C 536.45 378.08 529.36 371.98 528.70 364.01 C 528.72 357.33 532.66 350.47 539.01 347.93 Z" />
<path fill="#ffffff" opacity="1.00" d=" M 340.51 405.74 C 358.88 396.84 378.58 390.17 399.04 388.68 C 419.28 387.89 439.47 392.42 458.22 399.83 C 474.96 407.13 491.23 415.88 505.54 427.32 C 518.13 436.28 531.43 445.86 547.13 448.02 C 548.35 448.18 549.58 448.32 550.83 448.46 C 559.23 450.09 567.79 448.97 576.14 447.62 C 579.79 446.88 583.66 446.11 586.60 443.65 C 588.21 442.49 588.48 439.42 586.61 438.39 C 584.70 437.00 582.43 436.21 580.29 435.29 C 579.66 432.49 582.91 431.65 584.80 430.54 C 598.25 424.26 613.48 423.96 628.05 424.36 C 638.39 425.04 648.73 426.36 658.75 429.12 C 678.13 434.46 695.99 444.39 711.86 456.62 C 724.92 467.18 736.72 479.92 743.74 495.34 C 746.26 500.38 748.23 505.67 750.63 510.77 C 750.21 511.36 749.39 512.53 748.98 513.12 C 745.39 507.67 741.83 502.10 737.21 497.45 C 731.05 491.37 725.72 484.51 719.35 478.63 C 715.36 475.03 711.91 470.51 706.79 468.45 C 709.87 474.17 713.42 479.76 714.91 486.18 C 717.27 496.61 718.12 507.43 716.96 518.08 C 716.04 526.27 713.58 534.18 711.83 542.21 C 710.26 546.71 708.98 551.35 706.88 555.65 C 704.05 551.57 704.23 546.45 703.32 541.77 C 703.11 539.88 702.87 538.00 702.68 536.13 C 701.82 525.64 699.23 515.16 693.97 505.98 C 692.63 503.93 690.82 501.32 688.03 501.62 C 685.24 501.76 683.69 504.42 682.50 506.60 C 677.72 516.49 669.55 524.28 661.02 530.97 C 647.30 542.06 631.09 549.52 614.68 555.68 C 594.25 563.39 573.15 569.20 551.82 573.84 C 532.34 577.94 512.78 581.83 493.00 584.20 C 480.65 585.46 468.37 587.42 455.96 588.12 C 454.55 588.12 453.15 587.96 451.75 587.82 C 457.57 586.50 463.22 584.37 468.31 581.25 C 470.30 580.05 471.81 578.25 472.96 576.26 C 471.60 575.04 470.16 573.14 468.11 574.15 C 447.95 580.02 427.04 583.96 405.97 583.67 C 386.36 583.33 366.57 581.28 347.89 575.05 C 345.99 574.50 343.81 573.64 341.95 574.75 C 340.16 575.47 340.28 578.27 341.75 579.29 C 347.28 584.14 354.82 585.20 361.19 588.49 C 354.76 588.75 348.38 587.70 342.01 587.05 C 321.44 585.12 301.01 581.93 280.66 578.44 C 257.93 574.46 235.38 569.35 213.33 562.55 C 196.81 557.83 180.70 551.55 165.58 543.39 C 150.71 534.98 136.91 524.23 126.55 510.54 C 124.18 507.56 122.97 503.13 119.09 501.74 C 115.14 501.30 113.12 505.55 111.47 508.44 C 107.69 516.48 106.32 525.51 105.85 534.32 C 105.69 538.55 105.29 542.78 105.45 547.02 C 106.24 556.30 109.96 564.97 113.97 573.28 C 107.25 563.26 100.57 553.12 95.98 541.91 C 93.85 533.90 91.14 525.96 90.48 517.65 C 89.47 505.58 90.20 493.27 93.64 481.61 C 95.24 476.68 98.26 472.40 100.38 467.70 C 93.46 471.79 88.40 478.28 82.81 483.93 C 78.54 489.55 72.58 494.02 69.46 500.42 C 69.22 500.90 68.74 501.87 68.50 502.35 C 63.11 504.20 61.14 510.09 57.35 513.85 C 57.13 513.09 56.69 511.58 56.47 510.82 C 63.32 494.94 71.36 479.09 84.01 466.99 C 94.30 455.86 107.18 447.55 120.58 440.67 C 136.51 432.05 154.17 426.58 172.17 424.65 C 186.43 423.95 201.00 423.39 214.97 426.89 C 220.64 428.26 226.66 429.07 231.62 432.38 C 232.96 432.96 232.69 434.56 232.90 435.74 C 230.35 436.83 226.79 437.07 225.61 439.99 C 225.31 443.80 229.40 445.51 232.44 446.37 C 239.28 448.07 246.39 450.08 253.49 448.99 C 256.57 448.97 259.67 449.19 262.72 448.67 C 273.86 447.58 284.57 443.21 293.59 436.64 C 308.69 425.57 323.43 413.68 340.51 405.74 M 391.01 411.95 C 385.30 414.58 379.33 418.32 376.92 424.42 C 378.11 424.72 379.30 425.02 380.51 425.32 L 380.71 425.72 C 379.16 425.69 377.52 425.11 376.03 425.72 C 373.37 428.26 371.97 432.07 372.53 435.73 C 371.49 437.95 371.70 440.45 372.39 442.75 C 374.80 450.84 380.46 458.01 388.00 461.89 C 390.53 463.29 393.84 463.43 395.72 465.84 C 392.22 474.24 385.79 482.02 376.86 484.81 C 370.63 486.97 363.40 485.83 358.18 481.79 C 356.19 480.48 354.43 478.51 351.97 478.16 C 348.63 477.87 345.74 480.74 344.97 483.81 C 344.27 487.16 346.44 490.04 348.20 492.65 L 348.57 492.74 C 356.63 500.93 369.04 503.17 380.11 502.00 L 379.09 501.41 C 380.74 501.71 382.40 501.30 383.97 500.78 C 384.75 500.65 386.31 500.38 387.09 500.24 C 390.42 504.00 394.01 508.09 399.04 509.47 C 405.90 511.58 413.48 510.12 419.56 506.48 C 422.68 504.64 424.68 501.44 427.78 499.57 C 438.39 504.18 451.29 503.12 461.20 497.22 C 465.17 494.51 469.47 490.26 468.68 485.02 C 468.31 480.70 463.61 477.08 459.38 478.41 C 456.86 479.79 455.09 482.22 452.62 483.69 C 448.61 486.48 443.38 486.13 438.83 485.19 C 429.19 482.42 422.07 474.25 417.50 465.67 C 422.13 462.41 427.90 461.03 432.04 457.01 C 438.49 451.95 441.50 443.67 441.57 435.66 L 440.34 435.75 C 441.41 431.38 438.98 427.35 436.12 424.30 C 434.95 424.68 433.89 425.25 432.93 426.00 C 433.70 425.00 434.86 424.51 435.96 423.98 C 435.39 419.52 430.94 416.80 427.57 414.35 C 416.52 408.48 402.63 406.50 391.01 411.95 M 385.64 525.84 C 385.53 529.36 388.17 532.41 391.20 533.91 C 397.51 537.42 405.01 537.00 411.98 536.61 C 417.88 536.03 424.47 534.08 427.70 528.67 C 427.86 526.74 428.38 523.69 425.92 523.04 C 423.92 521.96 421.89 523.45 419.99 524.01 C 414.30 526.51 407.95 525.67 401.93 525.69 C 397.32 525.73 393.11 523.77 389.06 521.83 C 387.59 522.82 385.72 523.81 385.64 525.84 Z" />
</g>
<g id="#094a6bff">
<path fill="#094a6b" opacity="1.00" d=" M 149.82 155.63 C 152.46 154.67 155.24 154.08 158.07 154.10 C 164.37 154.02 170.70 153.27 176.98 154.15 C 184.39 155.10 191.30 158.17 198.12 161.07 C 200.36 162.41 203.47 163.81 203.63 166.79 C 189.39 156.91 171.27 152.43 154.16 155.99 C 152.71 155.90 151.26 155.78 149.82 155.63 Z" />
<path fill="#094a6b" opacity="1.00" d=" M 358.00 167.80 C 366.31 166.93 374.62 165.66 383.00 165.88 C 390.02 166.02 397.05 166.11 404.06 165.70 C 404.90 166.36 405.74 167.02 406.59 167.69 C 389.29 167.25 371.92 167.33 354.78 170.01 C 355.47 168.64 356.54 167.91 358.00 167.80 Z" />
<path fill="#094a6b" opacity="1.00" d=" M 206.05 168.64 C 207.29 168.44 208.67 168.27 209.66 169.23 C 213.37 171.84 216.15 175.49 219.33 178.68 C 222.04 181.40 224.54 184.41 226.22 187.90 C 227.02 189.08 226.87 190.48 226.39 191.76 C 221.25 182.78 214.28 174.90 206.05 168.64 Z" />
<path fill="#094a6b" opacity="1.00" d=" M 321.29 175.16 C 329.02 172.79 336.99 171.31 344.96 169.99 C 346.63 169.50 348.20 170.24 349.69 170.93 C 343.56 172.00 337.44 173.13 331.41 174.65 C 320.26 177.63 308.95 180.12 298.15 184.25 C 297.54 184.11 296.32 183.84 295.71 183.70 C 303.80 179.69 312.64 177.59 321.29 175.16 Z" />
<path fill="#094a6b" opacity="1.00" d=" M 348.57 492.74 C 353.06 493.51 356.46 496.87 360.74 498.25 C 366.56 500.73 373.04 499.91 379.09 501.41 L 380.11 502.00 C 369.04 503.17 356.63 500.93 348.57 492.74 Z" />
</g>
<g id="#fcffffff">
<path fill="#fcffff" opacity="1.00" d=" M 626.12 156.07 C 642.75 153.00 660.28 156.66 674.51 165.74 C 676.69 167.24 678.88 168.75 680.87 170.52 C 677.77 170.59 675.18 168.67 672.34 167.73 C 660.15 163.15 646.66 163.70 634.08 166.25 C 628.59 167.67 623.17 169.57 618.32 172.55 C 606.68 178.89 598.09 189.78 592.26 201.49 C 591.89 202.09 591.14 203.28 590.76 203.88 C 587.50 200.25 584.12 196.68 581.42 192.60 C 580.25 191.28 580.36 189.52 580.75 187.93 C 590.00 171.18 607.50 159.66 626.12 156.07 Z" />
<path fill="#fcffff" opacity="1.00" d=" M 141.40 367.55 C 143.55 366.71 145.85 366.45 148.12 366.25 C 133.79 373.79 120.87 383.65 107.86 393.22 C 101.59 396.99 95.74 401.42 89.70 405.54 C 96.69 396.82 102.62 386.87 112.17 380.62 C 115.06 378.89 117.97 377.17 121.02 375.74 C 127.63 372.58 134.55 370.14 141.40 367.55 Z" />
<path fill="#fcffff" opacity="1.00" d=" M 278.40 385.47 C 282.59 383.72 288.54 385.28 289.95 389.99 C 292.13 396.01 285.07 402.57 279.27 399.65 C 273.37 397.57 272.17 387.87 278.40 385.47 Z" />
</g>
<g id="#85f2e5ff">
<path fill="#85f2e5" opacity="1.00" d=" M 133.92 167.00 C 141.90 164.00 150.59 164.20 158.98 164.38 C 168.41 164.58 177.36 168.05 185.75 172.11 C 197.71 178.74 208.48 188.59 213.73 201.46 C 212.89 204.04 213.76 206.61 214.53 209.09 C 216.14 214.82 214.09 220.47 213.03 226.06 C 214.65 225.13 216.17 224.03 217.59 222.80 C 218.18 224.70 218.91 226.55 219.62 228.41 C 221.12 228.90 222.65 229.34 224.16 229.82 C 224.60 230.45 225.48 231.71 225.92 232.34 C 224.93 233.23 223.96 234.15 222.99 235.06 C 228.07 231.78 233.39 228.87 238.35 225.40 C 252.35 215.76 267.53 207.97 283.10 201.19 C 299.32 195.25 315.89 190.09 332.90 186.96 C 352.04 183.35 371.53 181.86 390.98 181.71 C 394.69 182.17 399.58 181.79 401.91 185.29 C 397.49 185.81 392.97 185.46 388.61 186.48 C 392.71 187.85 397.08 187.88 401.32 188.59 C 417.31 190.14 433.18 193.04 448.69 197.24 C 453.21 198.33 457.44 200.58 462.14 200.92 C 458.25 196.77 452.79 191.96 454.53 185.60 C 461.23 182.45 468.69 185.73 475.54 186.72 C 504.59 191.92 531.60 204.55 557.12 218.95 C 565.25 223.72 572.62 229.77 581.12 233.90 C 582.02 234.29 582.94 234.65 583.88 234.99 C 583.11 233.48 582.31 232.00 581.51 230.53 C 582.10 230.04 582.71 229.56 583.32 229.09 C 583.85 230.32 584.34 231.57 584.89 232.80 C 585.38 232.89 586.37 233.06 586.86 233.14 C 587.67 232.10 588.46 231.04 589.28 230.00 C 589.79 230.03 590.31 230.06 590.84 230.10 C 591.16 229.16 591.47 228.21 591.80 227.28 C 592.84 227.33 593.89 227.40 594.95 227.46 C 594.77 226.14 594.59 224.82 594.40 223.50 C 595.78 223.19 597.18 222.89 598.58 222.58 C 598.89 221.43 599.22 220.28 599.55 219.14 C 600.02 220.86 600.53 222.59 600.93 224.34 C 601.84 231.16 602.78 238.42 606.93 244.13 C 607.86 245.80 609.85 245.89 611.42 246.58 C 620.16 256.26 629.70 265.25 637.89 275.44 C 635.40 274.25 632.91 273.08 630.47 271.83 C 630.97 274.26 632.48 276.25 634.20 277.98 C 644.51 290.30 652.87 304.05 661.19 317.75 C 667.34 328.49 673.17 339.43 678.36 350.68 C 682.24 358.74 685.36 367.21 687.11 376.00 C 680.81 372.35 673.72 370.48 666.86 368.21 C 664.88 367.55 662.78 367.37 660.73 367.18 C 668.42 372.21 676.16 377.15 683.86 382.17 C 688.52 385.62 693.02 389.31 697.65 392.81 C 712.61 409.67 728.74 426.34 737.71 447.37 C 737.28 447.34 736.41 447.29 735.98 447.26 C 733.63 443.99 733.58 438.00 728.64 437.50 C 727.55 438.93 726.51 441.13 724.31 440.52 C 719.50 439.50 715.95 435.72 711.83 433.31 C 707.26 430.69 702.70 428.06 698.17 425.37 C 694.09 429.42 689.74 433.24 686.12 437.73 C 689.39 441.00 694.34 441.30 697.72 444.42 C 701.52 447.69 705.82 450.26 710.01 453.00 C 711.42 453.67 711.49 455.29 711.86 456.62 C 695.99 444.39 678.13 434.46 658.75 429.12 C 648.73 426.36 638.39 425.04 628.05 424.36 C 613.48 423.96 598.25 424.26 584.80 430.54 C 582.91 431.65 579.66 432.49 580.29 435.29 C 581.24 437.40 582.25 439.49 583.11 441.65 C 579.16 441.79 575.23 441.99 571.31 442.41 C 568.55 442.89 566.00 441.46 563.31 441.18 C 551.60 440.77 540.44 436.93 529.35 433.54 C 534.82 438.87 540.96 443.51 547.13 448.02 C 531.43 445.86 518.13 436.28 505.54 427.32 C 491.23 415.88 474.96 407.13 458.22 399.83 C 439.47 392.42 419.28 387.89 399.04 388.68 C 378.58 390.17 358.88 396.84 340.51 405.74 C 323.43 413.68 308.69 425.57 293.59 436.64 C 284.57 443.21 273.86 447.58 262.72 448.67 C 271.10 446.52 276.72 439.44 283.07 434.09 C 278.61 435.02 274.58 437.32 270.12 438.28 C 263.88 439.69 257.55 440.76 251.17 441.28 C 252.64 443.60 253.10 446.32 253.49 448.99 C 246.39 450.08 239.28 448.07 232.44 446.37 C 229.40 445.51 225.31 443.80 225.61 439.99 C 226.79 437.07 230.35 436.83 232.90 435.74 C 232.69 434.56 232.96 432.96 231.62 432.38 C 226.66 429.07 220.64 428.26 214.97 426.89 C 201.00 423.39 186.43 423.95 172.17 424.65 C 154.17 426.58 136.51 432.05 120.58 440.67 C 107.18 447.55 94.30 455.86 84.01 466.99 C 71.36 479.09 63.32 494.94 56.47 510.82 C 54.25 515.35 52.08 520.86 54.69 525.70 C 54.50 526.33 54.10 526.80 53.49 527.11 C 53.02 520.11 53.09 513.09 53.80 506.12 C 55.47 485.26 61.10 464.78 69.66 445.71 C 75.92 433.22 83.45 421.27 92.77 410.84 C 97.16 405.86 101.41 400.74 106.13 396.08 C 107.01 395.33 107.47 394.27 107.86 393.22 C 120.87 383.65 133.79 373.79 148.12 366.25 C 145.85 366.45 143.55 366.71 141.40 367.55 C 134.55 370.14 127.63 372.58 121.02 375.74 C 121.52 366.10 125.45 357.16 129.50 348.56 C 134.83 336.89 141.35 325.81 147.26 314.44 C 153.51 304.07 160.20 293.97 166.86 283.86 C 169.97 279.73 173.56 275.94 176.33 271.55 C 174.04 271.68 171.81 272.23 169.70 273.10 C 177.63 263.90 185.92 255.03 193.96 245.94 C 194.76 245.98 196.38 246.04 197.19 246.08 C 197.90 245.17 198.68 244.29 199.22 243.26 C 204.47 231.03 205.72 216.92 201.74 204.13 C 196.91 189.77 185.02 177.32 170.10 173.60 C 161.20 171.10 151.57 171.43 142.71 173.98 C 136.67 175.84 131.22 179.11 126.19 182.88 C 121.61 186.27 115.84 189.66 115.17 195.94 C 115.95 195.45 117.50 194.48 118.27 194.00 C 113.42 200.09 111.47 207.64 108.53 214.68 C 104.11 215.96 100.69 210.88 100.67 206.99 C 104.26 193.54 111.56 180.81 122.43 171.94 C 126.33 170.46 129.91 168.21 133.92 167.00 M 328.34 199.58 C 323.51 201.17 321.36 209.32 326.90 211.33 C 332.09 211.94 339.25 208.91 339.48 202.98 C 338.38 198.17 332.09 197.65 328.34 199.58 M 495.31 204.31 C 491.20 205.93 491.61 211.87 494.01 214.82 C 498.53 220.40 505.64 224.43 513.00 223.79 C 515.92 224.05 519.17 222.29 519.43 219.10 C 518.87 213.07 513.44 209.17 508.68 206.27 C 504.54 204.60 499.71 202.20 495.31 204.31 M 292.95 209.00 C 286.96 212.23 280.91 216.97 279.58 224.05 C 280.25 225.74 280.41 227.82 281.96 229.01 C 284.25 231.49 288.00 230.94 291.01 230.62 C 297.26 229.07 303.31 225.37 306.47 219.60 C 308.51 216.00 308.27 210.77 304.70 208.20 C 301.14 205.44 296.55 207.35 292.95 209.00 M 533.38 242.02 C 534.40 246.09 539.55 248.14 542.54 244.71 C 542.53 243.58 542.54 242.45 542.57 241.33 C 540.15 238.24 534.53 237.32 533.38 242.02 M 561.32 247.38 C 557.80 248.45 556.24 253.23 558.90 256.00 C 561.94 260.48 569.75 263.89 573.49 258.45 C 576.03 251.47 567.67 245.52 561.32 247.38 M 232.82 343.82 C 225.38 351.70 219.45 361.54 217.37 372.22 C 214.26 383.68 215.07 396.50 220.92 406.98 C 230.00 424.79 252.76 434.67 271.74 427.62 C 278.07 425.83 283.60 421.77 288.71 417.73 C 299.94 407.50 305.27 391.95 305.07 376.99 C 305.52 364.58 301.83 351.80 293.78 342.22 C 288.12 335.39 280.10 330.13 271.12 329.30 C 256.87 327.27 242.53 333.54 232.82 343.82 M 541.40 329.45 C 528.59 331.00 518.35 340.75 512.88 351.96 C 507.80 362.54 507.13 374.65 508.31 386.15 C 509.81 398.31 516.10 409.61 525.10 417.82 C 533.83 425.53 545.42 429.92 557.07 429.92 C 571.19 429.21 584.68 420.88 591.71 408.62 C 598.58 397.08 598.79 382.68 595.45 369.99 C 592.39 357.18 584.57 345.66 574.00 337.87 C 564.77 331.01 552.82 327.67 541.40 329.45 M 689.15 418.27 C 693.06 421.07 697.73 422.60 701.69 425.37 C 709.25 429.17 716.08 434.16 723.16 438.76 C 715.25 427.56 701.66 422.50 689.15 418.27 M 102.57 424.38 C 95.83 428.04 89.25 432.64 84.96 439.12 C 89.04 438.00 91.87 434.55 95.34 432.31 C 102.90 426.87 111.23 422.41 120.01 419.33 C 113.80 418.84 108.01 421.76 102.57 424.38 Z" />
</g>
<g id="#82e8e2ff">
<path fill="#82e8e2" opacity="1.00" d=" M 634.08 166.25 C 646.66 163.70 660.15 163.15 672.34 167.73 C 675.18 168.67 677.77 170.59 680.87 170.52 C 687.90 176.50 693.97 183.63 698.56 191.65 C 696.26 192.99 693.93 194.31 691.41 195.23 C 689.19 192.57 687.06 189.82 684.52 187.46 C 681.50 184.82 678.38 182.27 674.84 180.36 C 672.34 179.05 669.81 177.80 667.21 176.70 C 667.37 175.40 668.38 173.88 667.26 172.73 C 666.10 171.77 664.71 171.16 663.41 170.46 C 664.14 169.73 664.88 169.01 665.62 168.28 C 660.13 165.63 653.94 165.95 648.02 166.07 C 646.09 166.08 644.30 166.78 642.50 167.35 C 639.24 168.46 635.72 167.78 632.39 168.49 C 627.59 169.51 623.30 172.33 618.32 172.55 C 623.17 169.57 628.59 167.67 634.08 166.25 Z" />
</g>
<g id="#7ef2e5ff">
<path fill="#7ef2e5" opacity="1.00" d=" M 642.50 167.35 C 644.30 166.78 646.09 166.08 648.02 166.07 C 653.94 165.95 660.13 165.63 665.62 168.28 C 664.88 169.01 664.14 169.73 663.41 170.46 C 664.71 171.16 666.10 171.77 667.26 172.73 C 668.38 173.88 667.37 175.40 667.21 176.70 C 665.61 176.07 664.01 175.47 662.37 174.99 C 661.02 174.64 659.67 174.33 658.31 174.09 C 651.74 172.84 645.04 171.39 638.33 172.37 C 630.02 173.70 621.70 177.08 615.93 183.39 C 607.68 191.74 602.28 202.87 601.01 214.56 C 599.04 213.59 599.86 211.35 599.80 209.65 C 598.11 209.56 596.44 209.48 594.76 209.39 C 594.12 206.70 593.35 204.03 592.26 201.49 C 598.09 189.78 606.68 178.89 618.32 172.55 C 623.30 172.33 627.59 169.51 632.39 168.49 C 635.72 167.78 639.24 168.46 642.50 167.35 Z" />
</g>
<g id="#04778cff">
<path fill="#04778c" opacity="1.00" d=" M 142.71 173.98 C 151.57 171.43 161.20 171.10 170.10 173.60 C 169.57 173.74 168.52 174.03 167.99 174.17 C 168.85 174.58 169.73 174.99 170.60 175.40 C 169.01 176.54 167.13 177.47 166.06 179.19 C 164.31 182.66 164.18 186.81 161.97 190.09 C 157.34 192.78 153.11 189.07 149.01 187.34 C 149.16 186.81 149.44 185.75 149.59 185.22 C 148.24 184.96 146.89 184.70 145.54 184.45 C 145.28 182.19 144.93 179.95 144.38 177.75 C 145.00 177.44 146.23 176.83 146.84 176.52 C 145.46 175.68 144.08 174.83 142.71 173.98 Z" />
</g>
<g id="#056d7fff">
<path fill="#056d7f" opacity="1.00" d=" M 638.33 172.37 C 645.04 171.39 651.74 172.84 658.31 174.09 C 656.84 174.57 655.41 175.11 653.97 175.64 C 654.55 175.81 655.70 176.15 656.28 176.32 C 654.49 178.80 655.78 181.85 655.52 184.63 C 654.89 185.83 653.88 186.76 653.01 187.77 C 650.37 187.71 647.62 188.14 645.62 190.00 C 647.06 190.55 648.47 191.20 649.91 191.80 C 646.62 194.28 643.05 191.37 640.02 189.92 C 638.18 190.63 636.35 191.36 634.53 192.09 C 634.85 191.37 635.18 190.65 635.51 189.93 C 634.91 189.56 634.28 189.30 633.61 189.14 C 633.17 190.25 632.73 191.36 632.29 192.47 C 629.27 192.92 627.11 194.94 624.90 196.82 C 621.61 196.60 618.33 196.11 615.02 196.26 C 615.07 195.75 615.16 194.73 615.20 194.22 C 616.13 193.38 617.07 192.57 618.00 191.73 C 616.72 190.34 615.07 189.47 613.22 189.13 C 614.45 187.39 615.28 185.41 615.93 183.39 C 621.70 177.08 630.02 173.70 638.33 172.37 Z" />
</g>
<g id="#0e8999ff">
<path fill="#0e8999" opacity="1.00" d=" M 126.19 182.88 C 131.22 179.11 136.67 175.84 142.71 173.98 C 144.08 174.83 145.46 175.68 146.84 176.52 C 146.23 176.83 145.00 177.44 144.38 177.75 C 144.93 179.95 145.28 182.19 145.54 184.45 C 146.89 184.70 148.24 184.96 149.59 185.22 C 149.44 185.75 149.16 186.81 149.01 187.34 L 148.10 186.97 C 144.02 185.28 139.64 184.59 135.36 183.59 C 132.36 182.81 129.21 183.66 126.19 182.88 Z" />
</g>
<g id="#07697cff">
<path fill="#07697c" opacity="1.00" d=" M 167.99 174.17 C 168.52 174.03 169.57 173.74 170.10 173.60 C 185.02 177.32 196.91 189.77 201.74 204.13 C 205.72 216.92 204.47 231.03 199.22 243.26 C 198.68 244.29 197.90 245.17 197.19 246.08 C 196.38 246.04 194.76 245.98 193.96 245.94 C 185.92 255.03 177.63 263.90 169.70 273.10 C 163.57 279.85 157.94 287.09 152.59 294.47 C 147.58 301.59 143.05 309.02 138.21 316.26 C 132.77 324.66 128.23 333.58 123.23 342.24 C 116.18 354.51 111.17 367.81 106.51 381.14 C 108.35 380.66 110.27 380.08 112.17 380.62 C 102.62 386.87 96.69 396.82 89.70 405.54 C 95.74 401.42 101.59 396.99 107.86 393.22 C 107.47 394.27 107.01 395.33 106.13 396.08 C 101.41 400.74 97.16 405.86 92.77 410.84 C 83.45 421.27 75.92 433.22 69.66 445.71 C 61.10 464.78 55.47 485.26 53.80 506.12 C 50.88 508.01 52.33 512.04 51.68 514.95 C 50.89 512.17 50.00 509.43 49.20 506.66 C 47.70 508.40 46.23 510.17 44.85 512.02 C 43.95 509.94 43.02 507.87 42.11 505.80 C 41.55 506.72 40.99 507.64 40.43 508.57 C 39.62 507.81 38.82 507.05 38.01 506.31 C 37.37 515.35 38.50 524.45 37.31 533.47 C 35.75 512.96 35.89 492.06 40.67 471.95 C 48.76 436.94 65.17 403.34 90.51 377.58 C 91.75 376.31 90.84 374.51 90.93 373.01 C 91.51 369.71 92.24 366.43 93.32 363.27 C 101.01 342.21 110.12 321.37 123.75 303.41 C 119.46 300.81 115.15 298.13 111.40 294.79 C 111.50 292.10 110.98 289.42 108.46 287.96 C 108.90 287.23 109.33 286.51 109.77 285.79 C 106.36 282.15 103.73 277.38 98.78 275.60 C 98.99 275.05 99.21 274.50 99.42 273.96 C 99.02 273.20 98.63 272.46 98.23 271.71 C 101.07 270.94 103.92 270.17 106.81 269.57 C 107.00 267.79 107.64 266.00 107.32 264.21 C 106.45 261.64 103.96 259.39 105.02 256.47 C 108.63 263.67 113.53 270.19 119.25 275.85 C 123.43 280.48 128.30 284.48 133.64 287.71 C 135.73 284.86 137.70 281.92 139.81 279.09 C 144.45 273.27 148.78 267.22 153.47 261.45 C 163.88 249.55 174.28 237.55 185.85 226.75 C 188.08 225.24 187.29 222.27 187.26 220.01 C 186.66 214.88 185.71 209.55 183.00 205.07 C 182.52 204.89 181.56 204.53 181.08 204.36 C 176.45 196.32 166.60 191.80 157.53 194.43 C 152.99 193.06 148.96 196.26 145.25 198.39 C 141.08 202.22 136.64 205.74 132.42 209.51 C 130.07 211.74 126.87 212.59 123.78 213.19 C 125.59 207.78 128.85 203.05 132.41 198.67 C 136.71 193.67 142.12 189.71 148.10 186.97 L 149.01 187.34 C 153.11 189.07 157.34 192.78 161.97 190.09 C 164.18 186.81 164.31 182.66 166.06 179.19 C 167.13 177.47 169.01 176.54 170.60 175.40 C 169.73 174.99 168.85 174.58 167.99 174.17 Z" />
</g>
<g id="#0b7e8eff">
<path fill="#0b7e8e" opacity="1.00" d=" M 658.31 174.09 C 659.67 174.33 661.02 174.64 662.37 174.99 C 661.88 175.34 660.88 176.06 660.38 176.41 C 661.33 177.01 662.28 177.61 663.24 178.21 C 662.88 181.51 661.44 184.51 659.96 187.43 C 658.48 187.66 657.03 187.98 655.57 188.22 C 654.71 188.06 653.85 187.91 653.01 187.77 C 653.88 186.76 654.89 185.83 655.52 184.63 C 655.78 181.85 654.49 178.80 656.28 176.32 C 655.70 176.15 654.55 175.81 653.97 175.64 C 655.41 175.11 656.84 174.57 658.31 174.09 Z" />
</g>
<g id="#158d9cff">
<path fill="#158d9c" opacity="1.00" d=" M 662.37 174.99 C 664.01 175.47 665.61 176.07 667.21 176.70 C 669.81 177.80 672.34 179.05 674.84 180.36 C 673.54 180.47 672.26 180.63 670.99 180.83 C 670.54 182.13 670.14 183.45 669.73 184.76 C 666.72 186.43 663.35 187.13 659.96 187.43 C 661.44 184.51 662.88 181.51 663.24 178.21 C 662.28 177.61 661.33 177.01 660.38 176.41 C 660.88 176.06 661.88 175.34 662.37 174.99 Z" />
</g>
<g id="#2ea4aeff">
<path fill="#2ea4ae" opacity="1.00" d=" M 670.99 180.83 C 672.26 180.63 673.54 180.47 674.84 180.36 C 678.38 182.27 681.50 184.82 684.52 187.46 C 680.03 187.79 675.52 187.78 671.03 188.01 C 674.24 190.86 677.72 193.38 680.92 196.25 C 682.41 198.73 683.56 201.41 684.47 204.17 C 683.33 204.06 682.00 202.99 680.98 203.87 C 679.12 206.08 678.19 208.88 676.81 211.38 C 676.31 210.23 675.78 209.10 675.22 207.99 C 671.11 199.36 662.93 193.86 655.57 188.22 C 657.03 187.98 658.48 187.66 659.96 187.43 C 663.35 187.13 666.72 186.43 669.73 184.76 C 670.14 183.45 670.54 182.13 670.99 180.83 Z" />
</g>
<g id="#29a8b4ff">
<path fill="#29a8b4" opacity="1.00" d=" M 126.19 182.88 C 129.21 183.66 132.36 182.81 135.36 183.59 C 139.64 184.59 144.02 185.28 148.10 186.97 C 142.12 189.71 136.71 193.67 132.41 198.67 C 131.19 198.08 129.98 197.47 128.79 196.85 C 128.67 198.09 128.55 199.33 128.45 200.58 C 127.86 200.72 126.67 200.99 126.08 201.13 C 124.71 200.48 125.50 198.60 125.19 197.39 C 122.47 197.11 119.22 196.98 118.49 193.74 C 118.43 193.81 118.33 193.94 118.27 194.00 C 117.50 194.48 115.95 195.45 115.17 195.94 C 115.84 189.66 121.61 186.27 126.19 182.88 Z" />
</g>
<g id="#0a6778ff">
<path fill="#0a6778" opacity="1.00" d=" M 601.01 214.56 C 602.28 202.87 607.68 191.74 615.93 183.39 C 615.28 185.41 614.45 187.39 613.22 189.13 C 615.07 189.47 616.72 190.34 618.00 191.73 C 617.07 192.57 616.13 193.38 615.20 194.22 C 615.16 194.73 615.07 195.75 615.02 196.26 C 618.33 196.11 621.61 196.60 624.90 196.82 C 627.11 194.94 629.27 192.92 632.29 192.47 C 632.73 191.36 633.17 190.25 633.61 189.14 C 634.28 189.30 634.91 189.56 635.51 189.93 C 635.18 190.65 634.85 191.37 634.53 192.09 C 636.35 191.36 638.18 190.63 640.02 189.92 C 643.05 191.37 646.62 194.28 649.91 191.80 C 648.47 191.20 647.06 190.55 645.62 190.00 C 647.62 188.14 650.37 187.71 653.01 187.77 C 653.85 187.91 654.71 188.06 655.57 188.22 C 662.93 193.86 671.11 199.36 675.22 207.99 C 673.90 208.26 672.60 208.52 671.29 208.78 C 671.29 209.93 671.28 211.07 671.30 212.23 C 669.30 211.52 667.36 210.41 665.19 210.48 C 662.51 207.15 659.65 203.94 656.39 201.17 C 650.31 196.31 642.24 193.16 634.40 194.59 C 628.99 196.84 623.59 200.70 621.73 206.51 C 619.29 212.75 619.26 219.56 619.14 226.16 C 635.66 243.28 652.36 260.32 666.77 279.31 C 667.68 280.47 668.57 281.65 669.47 282.83 C 665.90 282.04 663.98 278.79 661.73 276.25 C 659.41 277.61 656.69 278.88 655.51 281.44 C 654.86 284.52 654.43 287.70 654.50 290.86 C 655.07 293.18 656.36 295.25 657.38 297.40 C 658.59 296.91 659.79 296.42 661.01 295.94 C 664.27 299.38 664.29 304.20 663.00 308.48 C 659.45 303.05 655.72 297.73 651.71 292.64 C 647.14 286.87 642.70 281.00 637.89 275.44 C 629.70 265.25 620.16 256.26 611.42 246.58 C 609.85 245.89 607.86 245.80 606.93 244.13 C 602.78 238.42 601.84 231.16 600.93 224.34 C 600.82 221.08 600.98 217.82 601.01 214.56 Z" />
</g>
<g id="#4dbdc2ff">
<path fill="#4dbdc2" opacity="1.00" d=" M 684.52 187.46 C 687.06 189.82 689.19 192.57 691.41 195.23 C 687.97 196.05 684.43 196.15 680.92 196.25 C 677.72 193.38 674.24 190.86 671.03 188.01 C 675.52 187.78 680.03 187.79 684.52 187.46 Z" />
</g>
<g id="#7ceae1ff">
<path fill="#7ceae1" opacity="1.00" d=" M 572.74 211.21 C 574.13 203.10 576.59 195.06 580.75 187.93 C 580.36 189.52 580.25 191.28 581.42 192.60 C 584.12 196.68 587.50 200.25 590.76 203.88 C 591.14 203.28 591.89 202.09 592.26 201.49 C 593.35 204.03 594.12 206.70 594.76 209.39 C 596.44 209.48 598.11 209.56 599.80 209.65 C 599.86 211.35 599.04 213.59 601.01 214.56 C 600.98 217.82 600.82 221.08 600.93 224.34 C 600.53 222.59 600.02 220.86 599.55 219.14 C 599.22 220.28 598.89 221.43 598.58 222.58 C 597.18 222.89 595.78 223.19 594.40 223.50 C 594.59 224.82 594.77 226.14 594.95 227.46 C 593.89 227.40 592.84 227.33 591.80 227.28 C 591.47 228.21 591.16 229.16 590.84 230.10 C 590.31 230.06 589.79 230.03 589.28 230.00 C 588.46 231.04 587.67 232.10 586.86 233.14 C 586.37 233.06 585.38 232.89 584.89 232.80 C 584.34 231.57 583.85 230.32 583.32 229.09 C 582.71 229.56 582.10 230.04 581.51 230.53 C 582.31 232.00 583.11 233.48 583.88 234.99 C 582.94 234.65 582.02 234.29 581.12 233.90 C 573.17 226.15 565.11 218.45 556.26 211.72 C 554.46 210.13 551.47 209.43 550.91 206.81 C 558.14 210.38 565.28 214.14 572.75 217.21 C 572.68 216.68 572.55 215.62 572.49 215.09 C 572.52 213.79 572.60 212.50 572.74 211.21 Z" />
</g>
<g id="#7dede3ff">
<path fill="#7dede3" opacity="1.00" d=" M 226.46 191.89 C 229.93 199.21 232.63 206.94 234.56 214.81 C 233.82 215.60 233.13 216.43 232.44 217.26 C 240.34 214.27 247.30 209.09 255.57 207.05 C 250.35 211.70 244.76 215.91 239.35 220.34 C 234.60 224.03 230.59 228.55 225.92 232.34 C 225.48 231.71 224.60 230.45 224.16 229.82 C 222.65 229.34 221.12 228.90 219.62 228.41 C 218.91 226.55 218.18 224.70 217.59 222.80 C 217.01 217.89 216.89 212.92 215.69 208.10 C 215.40 208.35 214.82 208.84 214.53 209.09 C 213.76 206.61 212.89 204.04 213.73 201.46 C 214.31 202.62 214.91 203.79 215.49 204.97 C 218.92 200.42 222.84 196.28 226.46 191.89 Z" />
</g>
<g id="#7ee1ddff">
<path fill="#7ee1dd" opacity="1.00" d=" M 691.41 195.23 C 693.93 194.31 696.26 192.99 698.56 191.65 C 701.59 196.87 703.97 202.48 705.49 208.33 C 703.66 212.01 700.51 216.04 695.99 215.93 C 692.79 216.24 689.82 214.43 687.67 212.22 C 685.79 209.93 685.34 206.91 684.47 204.17 C 683.56 201.41 682.41 198.73 680.92 196.25 C 684.43 196.15 687.97 196.05 691.41 195.23 Z" />
</g>
<g id="#38adb7ff">
<path fill="#38adb7" opacity="1.00" d=" M 118.27 194.00 C 118.33 193.94 118.43 193.81 118.49 193.74 C 119.22 196.98 122.47 197.11 125.19 197.39 C 125.50 198.60 124.71 200.48 126.08 201.13 C 126.67 200.99 127.86 200.72 128.45 200.58 C 128.55 199.33 128.67 198.09 128.79 196.85 C 129.98 197.47 131.19 198.08 132.41 198.67 C 128.85 203.05 125.59 207.78 123.78 213.19 C 118.91 225.91 117.69 240.24 121.71 253.37 C 123.91 259.74 127.37 266.06 133.02 270.00 C 135.13 273.14 137.47 276.12 139.81 279.09 C 137.70 281.92 135.73 284.86 133.64 287.71 C 128.30 284.48 123.43 280.48 119.25 275.85 C 113.53 270.19 108.63 263.67 105.02 256.47 C 97.76 241.12 97.19 223.38 100.67 206.99 C 100.69 210.88 104.11 215.96 108.53 214.68 C 111.47 207.64 113.42 200.09 118.27 194.00 Z" />
</g>
<g id="#0b5f75ff">
<path fill="#0b5f75" opacity="1.00" d=" M 145.25 198.39 C 148.96 196.26 152.99 193.06 157.53 194.43 C 144.51 198.15 134.82 209.37 130.99 222.09 C 125.25 237.60 128.54 254.62 133.02 270.00 C 127.37 266.06 123.91 259.74 121.71 253.37 C 117.69 240.24 118.91 225.91 123.78 213.19 C 126.87 212.59 130.07 211.74 132.42 209.51 C 136.64 205.74 141.08 202.22 145.25 198.39 Z" />
</g>
<g id="#db9a9aff">
<path fill="#db9a9a" opacity="1.00" d=" M 157.53 194.43 C 166.60 191.80 176.45 196.32 181.08 204.36 C 183.60 208.87 185.33 213.81 185.59 219.00 C 175.28 213.19 163.04 209.32 151.22 212.21 C 143.76 213.84 137.28 217.99 130.99 222.09 C 134.82 209.37 144.51 198.15 157.53 194.43 Z" />
</g>
<g id="#d79597ff">
<path fill="#d79597" opacity="1.00" d=" M 634.40 194.59 C 642.24 193.16 650.31 196.31 656.39 201.17 C 656.12 201.20 655.57 201.27 655.30 201.30 C 659.98 206.98 665.91 212.05 668.41 219.18 C 661.34 213.38 652.19 210.52 643.07 211.05 C 634.89 210.75 627.24 214.15 620.11 217.76 C 620.54 213.98 621.94 210.35 621.73 206.51 C 623.59 200.70 628.99 196.84 634.40 194.59 Z" />
</g>
<g id="#fdffffff">
<path fill="#fdffff" opacity="1.00" d=" M 328.34 199.58 C 332.09 197.65 338.38 198.17 339.48 202.98 C 339.25 208.91 332.09 211.94 326.90 211.33 C 321.36 209.32 323.51 201.17 328.34 199.58 Z" />
</g>
<g id="#fbc6bbff">
<path fill="#fbc6bb" opacity="1.00" d=" M 655.30 201.30 C 655.57 201.27 656.12 201.20 656.39 201.17 C 659.65 203.94 662.51 207.15 665.19 210.48 C 671.54 219.32 675.28 230.11 675.28 241.03 C 675.47 251.88 674.64 263.03 670.44 273.16 C 669.31 275.26 668.04 277.28 666.77 279.31 C 652.36 260.32 635.66 243.28 619.14 226.16 C 619.26 219.56 619.29 212.75 621.73 206.51 C 621.94 210.35 620.54 213.98 620.11 217.76 C 627.24 214.15 634.89 210.75 643.07 211.05 C 652.19 210.52 661.34 213.38 668.41 219.18 C 665.91 212.05 659.98 206.98 655.30 201.30 Z" />
</g>
<g id="#35aab4ff">
<path fill="#35aab4" opacity="1.00" d=" M 680.98 203.87 C 682.00 202.99 683.33 204.06 684.47 204.17 C 685.34 206.91 685.79 209.93 687.67 212.22 C 689.82 214.43 692.79 216.24 695.99 215.93 C 700.51 216.04 703.66 212.01 705.49 208.33 C 707.95 221.58 707.87 235.52 703.56 248.39 C 700.12 260.71 692.04 271.25 682.55 279.60 C 679.35 282.15 676.58 285.53 672.49 286.66 C 671.48 285.38 670.47 284.11 669.47 282.83 C 668.57 281.65 667.68 280.47 666.77 279.31 C 668.04 277.28 669.31 275.26 670.44 273.16 C 670.33 273.54 670.12 274.30 670.01 274.68 C 673.50 269.49 677.64 264.62 679.67 258.61 C 685.52 243.30 682.76 226.21 676.81 211.38 C 678.19 208.88 679.12 206.08 680.98 203.87 Z" />
</g>
<g id="#2d5c65ff">
<path fill="#2d5c65" opacity="1.00" d=" M 181.08 204.36 C 181.56 204.53 182.52 204.89 183.00 205.07 C 185.71 209.55 186.66 214.88 187.26 220.01 C 187.29 222.27 188.08 225.24 185.85 226.75 C 185.99 224.16 185.90 221.57 185.59 219.00 C 185.33 213.81 183.60 208.87 181.08 204.36 Z" />
</g>
<g id="#feffffff">
<path fill="#feffff" opacity="1.00" d=" M 495.31 204.31 C 499.71 202.20 504.54 204.60 508.68 206.27 C 513.44 209.17 518.87 213.07 519.43 219.10 C 519.17 222.29 515.92 224.05 513.00 223.79 C 505.64 224.43 498.53 220.40 494.01 214.82 C 491.61 211.87 491.20 205.93 495.31 204.31 Z" />
<path fill="#feffff" opacity="1.00" d=" M 292.95 209.00 C 296.55 207.35 301.14 205.44 304.70 208.20 C 308.27 210.77 308.51 216.00 306.47 219.60 C 303.31 225.37 297.26 229.07 291.01 230.62 C 288.00 230.94 284.25 231.49 281.96 229.01 C 280.41 227.82 280.25 225.74 279.58 224.05 C 280.91 216.97 286.96 212.23 292.95 209.00 Z" />
<path fill="#feffff" opacity="1.00" d=" M 660.73 367.18 C 662.78 367.37 664.88 367.55 666.86 368.21 C 673.72 370.48 680.81 372.35 687.11 376.00 C 691.37 378.22 695.08 381.30 699.18 383.78 C 705.72 390.35 712.63 396.80 717.07 405.10 C 710.25 401.54 704.54 396.24 697.65 392.81 C 693.02 389.31 688.52 385.62 683.86 382.17 C 676.16 377.15 668.42 372.21 660.73 367.18 Z" />
</g>
<g id="#6bd6d3ff">
<path fill="#6bd6d3" opacity="1.00" d=" M 214.53 209.09 C 214.82 208.84 215.40 208.35 215.69 208.10 C 216.89 212.92 217.01 217.89 217.59 222.80 C 216.17 224.03 214.65 225.13 213.03 226.06 C 214.09 220.47 216.14 214.82 214.53 209.09 Z" />
</g>
<g id="#065c6dff">
<path fill="#065c6d" opacity="1.00" d=" M 671.29 208.78 C 672.60 208.52 673.90 208.26 675.22 207.99 C 675.78 209.10 676.31 210.23 676.81 211.38 C 682.76 226.21 685.52 243.30 679.67 258.61 C 677.64 264.62 673.50 269.49 670.01 274.68 C 670.12 274.30 670.33 273.54 670.44 273.16 C 674.64 263.03 675.47 251.88 675.28 241.03 C 675.28 230.11 671.54 219.32 665.19 210.48 C 667.36 210.41 669.30 211.52 671.30 212.23 C 671.28 211.07 671.29 209.93 671.29 208.78 Z" />
</g>
<g id="#f9c6baff">
<path fill="#f9c6ba" opacity="1.00" d=" M 151.22 212.21 C 163.04 209.32 175.28 213.19 185.59 219.00 C 185.90 221.57 185.99 224.16 185.85 226.75 C 174.28 237.55 163.88 249.55 153.47 261.45 C 148.78 267.22 144.45 273.27 139.81 279.09 C 137.47 276.12 135.13 273.14 133.02 270.00 C 128.54 254.62 125.25 237.60 130.99 222.09 C 137.28 217.99 143.76 213.84 151.22 212.21 Z" />
</g>
<g id="#fbffffff">
<path fill="#fbffff" opacity="1.00" d=" M 533.38 242.02 C 534.53 237.32 540.15 238.24 542.57 241.33 C 542.54 242.45 542.53 243.58 542.54 244.71 C 539.55 248.14 534.40 246.09 533.38 242.02 Z" />
<path fill="#fbffff" opacity="1.00" d=" M 529.18 385.34 C 532.30 384.17 536.28 384.89 538.32 387.68 C 541.27 391.34 539.87 397.50 535.66 399.59 C 530.57 402.86 523.43 397.71 523.89 391.99 C 524.25 389.02 526.45 386.45 529.18 385.34 Z" />
</g>
<g id="#fefffeff">
<path fill="#fefffe" opacity="1.00" d=" M 561.32 247.38 C 567.67 245.52 576.03 251.47 573.49 258.45 C 569.75 263.89 561.94 260.48 558.90 256.00 C 556.24 253.23 557.80 248.45 561.32 247.38 Z" />
</g>
<g id="#43acb1ff">
<path fill="#43acb1" opacity="1.00" d=" M 169.70 273.10 C 171.81 272.23 174.04 271.68 176.33 271.55 C 173.56 275.94 169.97 279.73 166.86 283.86 C 160.20 293.97 153.51 304.07 147.26 314.44 C 147.95 310.78 148.57 307.10 149.63 303.53 C 150.56 301.89 151.92 300.54 152.81 298.87 C 152.82 297.40 152.75 295.93 152.59 294.47 C 157.94 287.09 163.57 279.85 169.70 273.10 Z" />
</g>
<g id="#60caccff">
<path fill="#60cacc" opacity="1.00" d=" M 630.47 271.83 C 632.91 273.08 635.40 274.25 637.89 275.44 C 642.70 281.00 647.14 286.87 651.71 292.64 C 650.35 292.38 648.84 292.27 647.88 291.15 C 644.33 287.71 640.88 284.15 637.73 280.34 C 636.86 279.15 635.43 278.64 634.20 277.98 C 632.48 276.25 630.97 274.26 630.47 271.83 Z" />
</g>
<g id="#47b0b7ff">
<path fill="#47b0b7" opacity="1.00" d=" M 634.20 277.98 C 635.43 278.64 636.86 279.15 637.73 280.34 C 640.88 284.15 644.33 287.71 647.88 291.15 C 648.84 292.27 650.35 292.38 651.71 292.64 C 655.72 297.73 659.45 303.05 663.00 308.48 C 671.90 321.49 679.35 335.41 686.50 349.43 C 691.70 359.89 695.01 371.14 699.96 381.70 C 699.42 381.87 698.34 382.20 697.80 382.37 C 698.15 382.72 698.84 383.43 699.18 383.78 C 695.08 381.30 691.37 378.22 687.11 376.00 C 685.36 367.21 682.24 358.74 678.36 350.68 C 673.17 339.43 667.34 328.49 661.19 317.75 C 652.87 304.05 644.51 290.30 634.20 277.98 Z" />
</g>
<g id="#3fadbbff">
<path fill="#3fadbb" opacity="1.00" d=" M 138.21 316.26 C 143.05 309.02 147.58 301.59 152.59 294.47 C 152.75 295.93 152.82 297.40 152.81 298.87 C 151.92 300.54 150.56 301.89 149.63 303.53 C 148.57 307.10 147.95 310.78 147.26 314.44 C 141.35 325.81 134.83 336.89 129.50 348.56 C 125.45 357.16 121.52 366.10 121.02 375.74 C 117.97 377.17 115.06 378.89 112.17 380.62 C 110.27 380.08 108.35 380.66 106.51 381.14 C 111.17 367.81 116.18 354.51 123.23 342.24 C 128.23 333.58 132.77 324.66 138.21 316.26 Z" />
</g>
<g id="#0b687aff">
<path fill="#0b687a" opacity="1.00" d=" M 232.82 343.82 C 242.53 333.54 256.87 327.27 271.12 329.30 C 280.10 330.13 288.12 335.39 293.78 342.22 C 301.83 351.80 305.52 364.58 305.07 376.99 C 305.27 391.95 299.94 407.50 288.71 417.73 C 283.60 421.77 278.07 425.83 271.74 427.62 C 266.81 426.90 261.91 428.45 256.96 428.05 C 251.95 428.24 247.44 425.85 242.95 423.98 C 233.39 420.08 225.43 412.36 221.07 403.03 C 219.17 394.52 216.66 385.78 218.14 376.99 C 218.50 375.33 217.83 373.76 217.37 372.22 C 219.45 361.54 225.38 351.70 232.82 343.82 M 262.98 347.52 C 255.36 349.65 249.88 358.09 251.75 365.90 C 253.50 375.21 263.75 381.74 272.93 379.30 C 281.73 377.44 287.99 367.59 285.19 358.88 C 286.35 361.57 285.88 364.59 286.34 367.43 C 288.20 363.54 287.42 358.54 285.16 354.92 C 284.33 353.99 283.36 351.64 281.80 352.81 C 277.15 347.81 269.58 345.25 262.98 347.52 M 278.40 385.47 C 272.17 387.87 273.37 397.57 279.27 399.65 C 285.07 402.57 292.13 396.01 289.95 389.99 C 288.54 385.28 282.59 383.72 278.40 385.47 M 233.65 390.71 C 231.43 394.62 232.56 399.03 233.81 403.04 C 235.30 407.15 238.32 411.32 242.92 412.03 C 247.71 412.78 252.01 408.63 252.73 404.09 C 253.16 398.33 248.20 392.98 242.63 392.15 C 243.19 391.78 244.32 391.03 244.88 390.66 C 243.89 388.96 243.09 386.69 240.93 386.23 C 237.75 385.74 234.49 387.51 233.65 390.71 Z" />
</g>
<g id="#0b6679ff">
<path fill="#0b6679" opacity="1.00" d=" M 541.40 329.45 C 552.82 327.67 564.77 331.01 574.00 337.87 C 584.57 345.66 592.39 357.18 595.45 369.99 C 598.79 382.68 598.58 397.08 591.71 408.62 C 584.68 420.88 571.19 429.21 557.07 429.92 C 545.42 429.92 533.83 425.53 525.10 417.82 C 516.10 409.61 509.81 398.31 508.31 386.15 C 507.13 374.65 507.80 362.54 512.88 351.96 C 518.35 340.75 528.59 331.00 541.40 329.45 M 539.01 347.93 C 532.66 350.47 528.72 357.33 528.70 364.01 C 529.36 371.98 536.45 378.08 543.92 379.78 C 551.26 380.87 558.31 376.03 561.65 369.72 L 561.71 371.15 C 563.35 370.97 563.52 369.11 563.99 367.90 C 565.49 362.37 564.90 355.61 560.45 351.56 C 558.83 350.05 557.00 347.82 554.54 349.05 C 549.86 346.46 543.97 345.68 539.01 347.93 M 529.18 385.34 C 526.45 386.45 524.25 389.02 523.89 391.99 C 523.43 397.71 530.57 402.86 535.66 399.59 C 539.87 397.50 541.27 391.34 538.32 387.68 C 536.28 384.89 532.30 384.17 529.18 385.34 M 569.10 390.72 C 569.83 390.89 571.28 391.21 572.01 391.38 C 570.98 391.87 569.95 392.36 568.93 392.85 C 561.66 394.98 559.13 405.88 565.69 410.32 C 571.74 415.26 581.29 409.22 581.04 401.94 C 583.86 402.10 582.84 398.70 582.98 396.94 C 583.13 392.84 580.85 388.63 576.95 387.10 C 573.84 385.06 570.77 388.32 569.10 390.72 Z" />
</g>
<g id="#155a65ff">
<path fill="#155a65" opacity="1.00" d=" M 554.54 349.05 C 557.00 347.82 558.83 350.05 560.45 351.56 C 564.90 355.61 565.49 362.37 563.99 367.90 C 563.52 369.11 563.35 370.97 561.71 371.15 L 561.65 369.72 C 562.98 365.96 563.74 361.74 562.31 357.90 C 560.99 354.06 557.95 351.10 554.54 349.05 Z" />
</g>
<g id="#0f525bff">
<path fill="#0f525b" opacity="1.00" d=" M 281.80 352.81 C 283.36 351.64 284.33 353.99 285.16 354.92 C 287.42 358.54 288.20 363.54 286.34 367.43 C 285.88 364.59 286.35 361.57 285.19 358.88 C 284.39 356.69 283.25 354.63 281.80 352.81 Z" />
</g>
<g id="#095f6bff">
<path fill="#095f6b" opacity="1.00" d=" M 217.37 372.22 C 217.83 373.76 218.50 375.33 218.14 376.99 C 216.66 385.78 219.17 394.52 221.07 403.03 C 225.43 412.36 233.39 420.08 242.95 423.98 C 247.44 425.85 251.95 428.24 256.96 428.05 C 261.91 428.45 266.81 426.90 271.74 427.62 C 252.76 434.67 230.00 424.79 220.92 406.98 C 215.07 396.50 214.26 383.68 217.37 372.22 Z" />
</g>
<g id="#1291a2ff">
<path fill="#1291a2" opacity="1.00" d=" M 233.65 390.71 C 234.49 387.51 237.75 385.74 240.93 386.23 C 243.09 386.69 243.89 388.96 244.88 390.66 C 244.32 391.03 243.19 391.78 242.63 392.15 C 237.13 392.36 233.05 397.66 233.81 403.04 C 232.56 399.03 231.43 394.62 233.65 390.71 Z" />
</g>
<g id="#188c9fff">
<path fill="#188c9f" opacity="1.00" d=" M 569.10 390.72 C 570.77 388.32 573.84 385.06 576.95 387.10 C 580.85 388.63 583.13 392.84 582.98 396.94 C 582.84 398.70 583.86 402.10 581.04 401.94 C 580.16 396.26 574.81 391.67 568.93 392.85 C 569.95 392.36 570.98 391.87 572.01 391.38 C 571.28 391.21 569.83 390.89 569.10 390.72 Z" />
</g>
<g id="#6afbffff">
<path fill="#6afbff" opacity="1.00" d=" M 233.81 403.04 C 233.05 397.66 237.13 392.36 242.63 392.15 C 248.20 392.98 253.16 398.33 252.73 404.09 C 252.01 408.63 247.71 412.78 242.92 412.03 C 238.32 411.32 235.30 407.15 233.81 403.04 Z" />
</g>
<g id="#65fbfeff">
<path fill="#65fbfe" opacity="1.00" d=" M 565.69 410.32 C 559.13 405.88 561.66 394.98 568.93 392.85 C 574.81 391.67 580.16 396.26 581.04 401.94 C 581.29 409.22 571.74 415.26 565.69 410.32 Z" />
</g>
<g id="#fdc6b9ff">
<path fill="#fdc6b9" opacity="1.00" d=" M 391.01 411.95 C 402.63 406.50 416.52 408.48 427.57 414.35 C 430.94 416.80 435.39 419.52 435.96 423.98 C 434.86 424.51 433.70 425.00 432.93 426.00 C 430.05 429.48 428.52 433.99 424.90 436.90 C 419.03 443.38 409.66 445.34 401.31 443.70 C 392.02 441.53 384.47 434.34 380.71 425.72 L 380.51 425.32 C 379.30 425.02 378.11 424.72 376.92 424.42 C 379.33 418.32 385.30 414.58 391.01 411.95 M 396.67 417.23 C 398.75 420.53 402.98 419.93 405.88 418.15 C 407.68 419.30 409.70 420.47 411.92 419.77 C 415.06 419.43 416.56 414.94 413.79 413.11 C 410.48 410.74 406.46 413.64 402.89 412.31 C 400.07 411.35 394.95 413.75 396.67 417.23 Z" />
</g>
<g id="#fffefdff">
<path fill="#fffefd" opacity="1.00" d=" M 396.67 417.23 C 394.95 413.75 400.07 411.35 402.89 412.31 C 406.46 413.64 410.48 410.74 413.79 413.11 C 416.56 414.94 415.06 419.43 411.92 419.77 C 409.70 420.47 407.68 419.30 405.88 418.15 C 402.98 419.93 398.75 420.53 396.67 417.23 Z" />
</g>
<g id="#e8fffaff">
<path fill="#e8fffa" opacity="1.00" d=" M 689.15 418.27 C 701.66 422.50 715.25 427.56 723.16 438.76 C 716.08 434.16 709.25 429.17 701.69 425.37 C 697.73 422.60 693.06 421.07 689.15 418.27 Z" />
<path fill="#e8fffa" opacity="1.00" d=" M 735.52 498.91 C 735.94 498.54 736.79 497.82 737.21 497.45 C 741.83 502.10 745.39 507.67 748.98 513.12 C 749.39 512.53 750.21 511.36 750.63 510.77 C 751.05 511.61 751.47 512.45 751.90 513.30 C 751.56 517.18 753.09 521.44 751.57 525.07 C 748.13 515.33 741.73 507.02 735.52 498.91 Z" />
</g>
<g id="#d3fefdff">
<path fill="#d3fefd" opacity="1.00" d=" M 102.57 424.38 C 108.01 421.76 113.80 418.84 120.01 419.33 C 111.23 422.41 102.90 426.87 95.34 432.31 C 91.87 434.55 89.04 438.00 84.96 439.12 C 89.25 432.64 95.83 428.04 102.57 424.38 Z" />
</g>
<g id="#08657aff">
<path fill="#08657a" opacity="1.00" d=" M 432.93 426.00 C 433.89 425.25 434.95 424.68 436.12 424.30 C 438.98 427.35 441.41 431.38 440.34 435.75 C 436.98 446.74 426.63 453.79 415.80 456.14 C 416.17 459.35 416.65 462.55 417.50 465.67 C 422.07 474.25 429.19 482.42 438.83 485.19 C 443.38 486.13 448.61 486.48 452.62 483.69 C 455.09 482.22 456.86 479.79 459.38 478.41 C 463.61 477.08 468.31 480.70 468.68 485.02 C 469.47 490.26 465.17 494.51 461.20 497.22 C 451.29 503.12 438.39 504.18 427.78 499.57 C 418.83 495.58 411.23 488.68 406.62 480.02 C 402.59 489.79 393.81 497.24 383.97 500.78 C 382.40 501.30 380.74 501.71 379.09 501.41 C 373.04 499.91 366.56 500.73 360.74 498.25 C 356.46 496.87 353.06 493.51 348.57 492.74 L 348.20 492.65 C 346.44 490.04 344.27 487.16 344.97 483.81 C 345.74 480.74 348.63 477.87 351.97 478.16 C 354.43 478.51 356.19 480.48 358.18 481.79 C 363.40 485.83 370.63 486.97 376.86 484.81 C 385.79 482.02 392.22 474.24 395.72 465.84 C 396.35 464.02 396.83 462.15 397.36 460.31 C 399.46 458.69 399.30 456.20 398.99 453.86 C 398.00 453.60 397.03 453.35 396.05 453.10 C 394.58 450.76 392.90 448.56 390.97 446.59 C 391.70 445.48 392.44 443.53 394.10 443.98 C 396.51 444.38 398.92 444.10 401.31 443.70 C 409.66 445.34 419.03 443.38 424.90 436.90 C 428.52 433.99 430.05 429.48 432.93 426.00 Z" />
</g>
<g id="#7bf1e5ff">
<path fill="#7bf1e5" opacity="1.00" d=" M 698.17 425.37 C 702.70 428.06 707.26 430.69 711.83 433.31 C 715.95 435.72 719.50 439.50 724.31 440.52 C 726.51 441.13 727.55 438.93 728.64 437.50 C 733.58 438.00 733.63 443.99 735.98 447.26 C 736.41 447.29 737.28 447.34 737.71 447.37 C 745.74 466.87 752.39 487.51 752.06 508.83 C 751.99 510.31 751.94 511.81 751.90 513.30 C 751.47 512.45 751.05 511.61 750.63 510.77 C 748.23 505.67 746.26 500.38 743.74 495.34 C 736.72 479.92 724.92 467.18 711.86 456.62 C 711.49 455.29 711.42 453.67 710.01 453.00 C 705.82 450.26 701.52 447.69 697.72 444.42 C 694.34 441.30 689.39 441.00 686.12 437.73 C 689.74 433.24 694.09 429.42 698.17 425.37 Z" />
</g>
<g id="#0c6174ff">
<path fill="#0c6174" opacity="1.00" d=" M 372.53 435.73 C 371.97 432.07 373.37 428.26 376.03 425.72 C 377.52 425.11 379.16 425.69 380.71 425.72 C 384.47 434.34 392.02 441.53 401.31 443.70 C 398.92 444.10 396.51 444.38 394.10 443.98 C 392.44 443.53 391.70 445.48 390.97 446.59 C 392.90 448.56 394.58 450.76 396.05 453.10 C 397.03 453.35 398.00 453.60 398.99 453.86 C 399.30 456.20 399.46 458.69 397.36 460.31 C 397.58 458.98 397.80 457.66 398.03 456.34 C 387.04 453.76 376.96 446.28 372.53 435.73 Z" />
</g>
<g id="#4cc4c6ff">
<path fill="#4cc4c6" opacity="1.00" d=" M 270.12 438.28 C 274.58 437.32 278.61 435.02 283.07 434.09 C 276.72 439.44 271.10 446.52 262.72 448.67 C 259.67 449.19 256.57 448.97 253.49 448.99 C 253.10 446.32 252.64 443.60 251.17 441.28 C 257.55 440.76 263.88 439.69 270.12 438.28 Z" />
</g>
<g id="#48c3c7ff">
<path fill="#48c3c7" opacity="1.00" d=" M 529.35 433.54 C 540.44 436.93 551.60 440.77 563.31 441.18 C 562.35 442.86 561.85 445.03 560.07 446.06 C 557.29 447.73 553.96 447.97 550.83 448.46 C 549.58 448.32 548.35 448.18 547.13 448.02 C 540.96 443.51 534.82 438.87 529.35 433.54 Z" />
</g>
<g id="#c3e7daff">
<path fill="#c3e7da" opacity="1.00" d=" M 372.39 442.75 C 371.70 440.45 371.49 437.95 372.53 435.73 C 376.96 446.28 387.04 453.76 398.03 456.34 C 397.80 457.66 397.58 458.98 397.36 460.31 C 396.83 462.15 396.35 464.02 395.72 465.84 C 393.84 463.43 390.53 463.29 388.00 461.89 C 380.46 458.01 374.80 450.84 372.39 442.75 Z" />
</g>
<g id="#b8e4d5ff">
<path fill="#b8e4d5" opacity="1.00" d=" M 415.80 456.14 C 426.63 453.79 436.98 446.74 440.34 435.75 L 441.57 435.66 C 441.50 443.67 438.49 451.95 432.04 457.01 C 427.90 461.03 422.13 462.41 417.50 465.67 C 416.65 462.55 416.17 459.35 415.80 456.14 Z" />
</g>
<g id="#7ae8dcff">
<path fill="#7ae8dc" opacity="1.00" d=" M 583.11 441.65 C 582.25 439.49 581.24 437.40 580.29 435.29 C 582.43 436.21 584.70 437.00 586.61 438.39 C 588.48 439.42 588.21 442.49 586.60 443.65 C 583.66 446.11 579.79 446.88 576.14 447.62 C 567.79 448.97 559.23 450.09 550.83 448.46 C 553.96 447.97 557.29 447.73 560.07 446.06 C 561.85 445.03 562.35 442.86 563.31 441.18 C 566.00 441.46 568.55 442.89 571.31 442.41 C 575.23 441.99 579.16 441.79 583.11 441.65 Z" />
</g>
<g id="#d2f0e3ff">
<path fill="#d2f0e3" opacity="1.00" d=" M 82.81 483.93 C 88.40 478.28 93.46 471.79 100.38 467.70 C 98.26 472.40 95.24 476.68 93.64 481.61 C 90.20 493.27 89.47 505.58 90.48 517.65 C 91.14 525.96 93.85 533.90 95.98 541.91 C 94.16 541.26 91.86 539.19 90.08 541.00 C 88.18 543.16 87.79 546.23 87.53 549.01 C 87.30 555.04 87.30 561.16 88.64 567.08 C 91.63 579.59 95.40 592.09 101.91 603.27 C 102.81 605.36 104.85 607.19 104.60 609.63 C 95.63 600.00 86.47 590.08 80.99 577.96 C 72.69 562.73 69.71 545.26 68.67 528.13 C 67.72 518.89 68.19 509.59 69.46 500.42 C 72.58 494.02 78.54 489.55 82.81 483.93 Z" />
</g>
<g id="#d5eedeff">
<path fill="#d5eede" opacity="1.00" d=" M 706.79 468.45 C 711.91 470.51 715.36 475.03 719.35 478.63 C 725.72 484.51 731.05 491.37 737.21 497.45 C 736.79 497.82 735.94 498.54 735.52 498.91 C 739.18 507.45 738.44 516.90 738.27 525.97 C 738.01 537.26 736.29 548.57 732.69 559.29 C 730.51 558.71 728.34 557.78 726.05 557.91 C 724.43 558.36 723.52 560.00 722.36 561.10 C 721.48 556.55 723.49 551.26 720.53 547.29 C 719.55 544.37 719.84 540.14 716.28 539.01 C 714.82 540.11 713.33 541.17 711.83 542.21 C 713.58 534.18 716.04 526.27 716.96 518.08 C 718.12 507.43 717.27 496.61 714.91 486.18 C 713.42 479.76 709.87 474.17 706.79 468.45 Z" />
</g>
<g id="#a3d8d1ff">
<path fill="#a3d8d1" opacity="1.00" d=" M 383.97 500.78 C 393.81 497.24 402.59 489.79 406.62 480.02 C 411.23 488.68 418.83 495.58 427.78 499.57 C 424.68 501.44 422.68 504.64 419.56 506.48 C 413.48 510.12 405.90 511.58 399.04 509.47 C 394.01 508.09 390.42 504.00 387.09 500.24 C 386.31 500.38 384.75 500.65 383.97 500.78 Z" />
</g>
<g id="#e5f8f7ff">
<path fill="#e5f8f7" opacity="1.00" d=" M 57.35 513.85 C 61.14 510.09 63.11 504.20 68.50 502.35 C 63.65 509.96 57.51 516.99 54.69 525.70 C 52.08 520.86 54.25 515.35 56.47 510.82 C 56.69 511.58 57.13 513.09 57.35 513.85 Z" />
</g>
<g id="#d4f0e0ff">
<path fill="#d4f0e0" opacity="1.00" d=" M 111.47 508.44 C 113.12 505.55 115.14 501.30 119.09 501.74 C 122.97 503.13 124.18 507.56 126.55 510.54 C 136.91 524.23 150.71 534.98 165.58 543.39 C 180.70 551.55 196.81 557.83 213.33 562.55 C 235.38 569.35 257.93 574.46 280.66 578.44 C 301.01 581.93 321.44 585.12 342.01 587.05 C 348.38 587.70 354.76 588.75 361.19 588.49 C 354.82 585.20 347.28 584.14 341.75 579.29 C 340.28 578.27 340.16 575.47 341.95 574.75 C 343.81 573.64 345.99 574.50 347.89 575.05 C 366.57 581.28 386.36 583.33 405.97 583.67 C 427.04 583.96 447.95 580.02 468.11 574.15 C 470.16 573.14 471.60 575.04 472.96 576.26 C 471.81 578.25 470.30 580.05 468.31 581.25 C 463.22 584.37 457.57 586.50 451.75 587.82 C 453.15 587.96 454.55 588.12 455.96 588.12 C 468.37 587.42 480.65 585.46 493.00 584.20 C 512.78 581.83 532.34 577.94 551.82 573.84 C 573.15 569.20 594.25 563.39 614.68 555.68 C 631.09 549.52 647.30 542.06 661.02 530.97 C 669.55 524.28 677.72 516.49 682.50 506.60 C 683.69 504.42 685.24 501.76 688.03 501.62 C 690.82 501.32 692.63 503.93 693.97 505.98 C 699.23 515.16 701.82 525.64 702.68 536.13 C 698.94 540.09 697.97 545.71 695.55 550.45 C 687.87 568.43 673.87 583.30 657.03 593.04 C 641.56 601.68 624.80 607.67 607.85 612.66 C 587.87 618.34 567.61 623.16 547.13 626.68 C 530.10 629.45 513.05 632.03 495.94 634.19 C 489.75 635.02 483.42 635.01 477.38 636.70 C 486.10 637.82 494.79 639.19 503.22 641.77 C 493.77 642.80 484.26 641.89 474.79 642.51 C 428.28 642.75 381.76 642.80 335.25 642.68 C 325.06 641.72 314.75 643.37 304.62 641.70 C 312.79 639.72 321.24 638.85 329.27 636.40 C 307.94 632.70 286.29 631.28 265.02 627.21 C 243.43 623.78 222.09 618.91 201.05 613.02 C 183.33 608.57 165.95 602.15 150.37 592.50 C 138.82 584.71 128.17 575.20 120.55 563.43 C 115.98 557.80 113.31 551.01 110.61 544.36 C 109.34 540.87 108.22 537.25 105.85 534.32 C 106.32 525.51 107.69 516.48 111.47 508.44 M 389.45 605.61 C 387.91 606.66 386.37 608.02 385.87 609.90 C 385.00 613.44 388.50 616.92 391.95 616.78 C 401.62 616.61 411.30 616.74 420.98 616.66 C 424.14 616.84 427.61 614.36 427.47 610.97 C 427.70 607.95 425.17 604.88 422.03 605.19 C 412.68 605.17 403.34 605.30 394.00 605.13 C 392.50 605.25 390.82 604.86 389.45 605.61 Z" />
</g>
<g id="#408b94ff">
<path fill="#408b94" opacity="1.00" d=" M 752.06 508.83 C 752.56 515.06 752.97 521.32 752.90 527.59 C 752.42 526.72 751.96 525.94 751.57 525.07 C 753.09 521.44 751.56 517.18 751.90 513.30 C 751.94 511.81 751.99 510.31 752.06 508.83 Z" />
</g>
<g id="#c9e8dbff">
<path fill="#c9e8db" opacity="1.00" d=" M 385.64 525.84 C 385.72 523.81 387.59 522.82 389.06 521.83 C 393.11 523.77 397.32 525.73 401.93 525.69 C 407.95 525.67 414.30 526.51 419.99 524.01 C 421.89 523.45 423.92 521.96 425.92 523.04 C 428.38 523.69 427.86 526.74 427.70 528.67 C 424.47 534.08 417.88 536.03 411.98 536.61 C 405.01 537.00 397.51 537.42 391.20 533.91 C 388.17 532.41 385.53 529.36 385.64 525.84 Z" />
</g>
<g id="#8ed0cdff">
<path fill="#8ed0cd" opacity="1.00" d=" M 105.85 534.32 C 108.22 537.25 109.34 540.87 110.61 544.36 C 113.31 551.01 115.98 557.80 120.55 563.43 C 128.17 575.20 138.82 584.71 150.37 592.50 C 165.95 602.15 183.33 608.57 201.05 613.02 C 222.09 618.91 243.43 623.78 265.02 627.21 C 286.29 631.28 307.94 632.70 329.27 636.40 C 321.24 638.85 312.79 639.72 304.62 641.70 C 314.75 643.37 325.06 641.72 335.25 642.68 C 292.17 643.13 249.10 642.32 206.02 642.23 C 193.70 642.11 181.26 642.88 169.10 640.42 C 161.05 638.67 153.03 636.62 145.36 633.60 C 142.56 630.09 138.92 627.40 136.01 623.99 C 130.91 618.56 126.54 612.44 120.94 607.51 C 121.77 614.47 126.03 620.22 128.85 626.45 C 120.02 622.07 111.46 616.79 104.60 609.63 C 104.85 607.19 102.81 605.36 101.91 603.27 C 95.40 592.09 91.63 579.59 88.64 567.08 C 87.30 561.16 87.30 555.04 87.53 549.01 C 87.79 546.23 88.18 543.16 90.08 541.00 C 91.86 539.19 94.16 541.26 95.98 541.91 C 100.57 553.12 107.25 563.26 113.97 573.28 C 109.96 564.97 106.24 556.30 105.45 547.02 C 105.29 542.78 105.69 538.55 105.85 534.32 Z" />
<path fill="#8ed0cd" opacity="1.00" d=" M 695.55 550.45 C 697.97 545.71 698.94 540.09 702.68 536.13 C 702.87 538.00 703.11 539.88 703.32 541.77 C 701.98 546.86 701.10 552.06 700.32 557.27 C 699.56 562.60 697.54 567.62 696.51 572.89 C 701.22 567.99 703.52 561.44 706.88 555.65 C 708.98 551.35 710.26 546.71 711.83 542.21 C 713.33 541.17 714.82 540.11 716.28 539.01 C 719.84 540.14 719.55 544.37 720.53 547.29 C 721.53 562.30 719.27 577.41 714.51 591.64 C 712.99 596.14 709.79 599.77 707.79 604.04 C 700.15 612.62 691.32 620.40 680.90 625.42 C 683.60 619.40 687.05 613.37 686.95 606.56 C 682.88 610.69 679.91 615.74 675.85 619.89 C 672.47 624.29 668.00 627.63 664.27 631.68 L 664.41 632.76 C 655.65 636.11 646.62 638.84 637.41 640.64 C 625.05 642.65 612.48 642.39 600.00 642.50 C 558.26 642.60 516.53 642.62 474.79 642.51 C 484.26 641.89 493.77 642.80 503.22 641.77 C 494.79 639.19 486.10 637.82 477.38 636.70 C 483.42 635.01 489.75 635.02 495.94 634.19 C 513.05 632.03 530.10 629.45 547.13 626.68 C 567.61 623.16 587.87 618.34 607.85 612.66 C 624.80 607.67 641.56 601.68 657.03 593.04 C 673.87 583.30 687.87 568.43 695.55 550.45 Z" />
</g>
<g id="#d6f1e6ff">
<path fill="#d6f1e6" opacity="1.00" d=" M 703.32 541.77 C 704.23 546.45 704.05 551.57 706.88 555.65 C 703.52 561.44 701.22 567.99 696.51 572.89 C 697.54 567.62 699.56 562.60 700.32 557.27 C 701.10 552.06 701.98 546.86 703.32 541.77 Z" />
</g>
<g id="#d9f2e4ff">
<path fill="#d9f2e4" opacity="1.00" d=" M 720.53 547.29 C 723.49 551.26 721.48 556.55 722.36 561.10 C 723.52 560.00 724.43 558.36 726.05 557.91 C 728.34 557.78 730.51 558.71 732.69 559.29 C 727.70 575.73 719.38 591.29 707.79 604.04 C 709.79 599.77 712.99 596.14 714.51 591.64 C 719.27 577.41 721.53 562.30 720.53 547.29 Z" />
</g>
<g id="#81c8caff">
<path fill="#81c8ca" opacity="1.00" d=" M 389.45 605.61 C 390.82 604.86 392.50 605.25 394.00 605.13 C 403.34 605.30 412.68 605.17 422.03 605.19 C 425.17 604.88 427.70 607.95 427.47 610.97 C 427.61 614.36 424.14 616.84 420.98 616.66 C 411.30 616.74 401.62 616.61 391.95 616.78 C 388.50 616.92 385.00 613.44 385.87 609.90 C 386.37 608.02 387.91 606.66 389.45 605.61 Z" />
</g>
<g id="#d3fbecff">
<path fill="#d3fbec" opacity="1.00" d=" M 675.85 619.89 C 679.91 615.74 682.88 610.69 686.95 606.56 C 687.05 613.37 683.60 619.40 680.90 625.42 C 675.61 628.33 670.03 630.60 664.41 632.76 L 664.27 631.68 C 668.00 627.63 672.47 624.29 675.85 619.89 Z" />
</g>
<g id="#d7efeaff">
<path fill="#d7efea" opacity="1.00" d=" M 120.94 607.51 C 126.54 612.44 130.91 618.56 136.01 623.99 C 138.92 627.40 142.56 630.09 145.36 633.60 C 139.74 631.49 134.14 629.30 128.85 626.45 C 126.03 620.22 121.77 614.47 120.94 607.51 Z" />
</g>
<g id="#75e3d9ff">
<path fill="#75e3d9" opacity="1.00" d=" M 69.87 639.10 C 75.31 638.55 80.63 636.73 86.14 637.32 C 83.41 638.69 80.54 640.68 79.97 643.92 C 79.11 647.57 81.07 651.19 83.94 653.36 C 88.43 657.37 95.11 653.52 100.29 656.03 C 99.75 657.44 99.33 658.92 99.04 660.41 C 101.55 661.38 104.14 662.22 106.45 663.64 C 107.66 664.74 107.74 666.58 106.60 667.78 C 93.61 666.79 80.82 664.05 68.03 661.60 C 61.16 660.25 54.27 658.79 47.65 656.47 C 45.09 655.44 41.91 654.04 41.46 650.98 C 42.20 647.27 46.17 645.65 49.32 644.39 C 56.02 642.08 62.99 640.70 69.87 639.10 Z" />
</g>
<g id="#7de8dcff">
<path fill="#7de8dc" opacity="1.00" d=" M 722.19 637.65 C 725.10 636.97 728.02 637.86 730.88 638.37 C 740.62 639.94 750.50 641.62 759.62 645.51 C 762.28 646.66 765.63 649.13 764.51 652.47 C 759.88 656.82 753.36 658.06 747.45 659.74 C 732.35 662.80 717.25 665.95 702.00 668.19 C 667.88 673.30 633.43 675.69 599.08 678.47 C 590.72 679.58 582.25 679.23 573.88 680.32 C 563.22 680.40 552.63 681.60 541.97 681.58 C 526.04 683.36 509.94 682.15 493.96 683.12 C 442.31 683.51 390.65 683.78 339.00 683.26 C 327.66 683.53 316.36 682.53 305.02 682.66 C 284.65 682.65 264.33 681.53 244.01 680.47 C 236.30 680.72 228.71 679.17 221.01 679.29 C 189.98 676.85 158.93 674.41 128.00 670.76 C 120.75 670.13 113.56 668.83 106.29 668.33 L 106.60 667.78 C 107.74 666.58 107.66 664.74 106.45 663.64 C 104.14 662.22 101.55 661.38 99.04 660.41 C 99.33 658.92 99.75 657.44 100.29 656.03 C 95.11 653.52 88.43 657.37 83.94 653.36 C 88.26 654.06 92.63 653.57 96.98 653.67 C 110.35 653.38 123.77 654.20 137.11 653.05 C 140.52 653.77 143.79 655.05 147.19 655.84 C 158.53 659.01 170.07 661.70 181.80 662.86 C 188.69 663.12 195.59 663.00 202.49 662.94 C 308.33 663.14 414.17 662.93 520.01 663.06 C 550.49 662.99 580.97 663.24 611.45 662.94 C 618.79 663.01 626.16 663.29 633.45 662.27 C 645.36 660.92 656.91 657.48 668.17 653.49 C 682.12 653.25 696.07 653.45 710.02 653.47 C 714.23 653.43 718.51 653.81 722.67 652.85 C 725.17 651.06 727.28 648.23 727.05 645.01 C 727.12 641.79 724.41 639.53 722.19 637.65 Z" />
</g>
<g id="#00505cff">
<path fill="#00505c" opacity="1.00" d=" M 667.27 652.22 C 683.16 651.53 699.08 652.02 714.98 651.57 C 717.60 651.43 720.30 651.55 722.67 652.85 C 718.51 653.81 714.23 653.43 710.02 653.47 C 696.07 653.45 682.12 653.25 668.17 653.49 C 667.95 653.17 667.50 652.54 667.27 652.22 Z" />
</g>
<g id="#0a646aff">
<path fill="#0a646a" opacity="1.00" d=" M 147.19 655.84 C 150.09 653.87 153.31 655.58 156.27 656.39 C 165.73 658.97 175.41 660.74 185.21 661.21 C 184.07 661.75 182.93 662.30 181.80 662.86 C 170.07 661.70 158.53 659.01 147.19 655.84 Z" />
</g>
<g id="#025563ff">
<path fill="#025563" opacity="1.00" d=" M 234.00 661.79 C 252.66 661.64 271.34 662.08 289.99 661.13 C 299.31 661.05 308.63 661.20 317.94 661.10 C 347.30 660.28 376.68 661.62 406.03 660.86 C 425.01 660.90 444.01 660.70 462.97 661.60 C 510.31 661.67 557.66 661.48 605.00 661.80 C 607.21 661.69 609.35 662.29 611.45 662.94 C 580.97 663.24 550.49 662.99 520.01 663.06 C 414.17 662.93 308.33 663.14 202.49 662.94 C 204.61 662.29 206.78 661.66 209.04 661.87 C 217.36 662.31 225.68 661.64 234.00 661.79 Z" />
</g>
</svg>
